<svg xmlns="http://www.w3.org/2000/svg" viewBox="0 0 64 64" fill="none">
  <title>Captures (L1)</title>
  <defs>
    <linearGradient id="bg" x1="8" y1="6" x2="56" y2="58" gradientUnits="userSpaceOnUse">
      <stop stop-color="#103847"/>
      <stop offset="1" stop-color="#06141B"/>
    </linearGradient>
    <linearGradient id="stroke" x1="16" y1="10" x2="48" y2="50" gradientUnits="userSpaceOnUse">
      <stop stop-color="#37EFB0"/>
      <stop offset="1" stop-color="#63E6FF"/>
    </linearGradient>
    <radialGradient id="glow" cx="0" cy="0" r="1" gradientUnits="userSpaceOnUse" gradientTransform="translate(32 35) rotate(90) scale(19)">
      <stop stop-color="#37EFB0" stop-opacity=".24"/>
      <stop offset="1" stop-color="#37EFB0" stop-opacity="0"/>
    </radialGradient>
  </defs>
  <rect x="3.5" y="3.5" width="57" height="57" rx="16" fill="url(#bg)" stroke="#2D5E65" stroke-opacity=".78"/>
  <circle cx="32" cy="35" r="18" fill="url(#glow)"/>
  <path d="M20 15V25M32 13V28M44 15V25" stroke="url(#stroke)" stroke-width="2.4" stroke-linecap="round"/>
  <path d="M17.5 24.5L20 27L22.5 24.5M29.5 27.5L32 30L34.5 27.5M41.5 24.5L44 27L46.5 24.5" stroke="url(#stroke)" stroke-width="2.2" stroke-linecap="round" stroke-linejoin="round"/>
  <path d="M18 33H46L42 48H22L18 33Z" fill="#0A1A22" stroke="url(#stroke)" stroke-width="2.4" stroke-linejoin="round"/>
  <path d="M22 38H42" stroke="#86F2FF" stroke-width="1.8" stroke-linecap="round" opacity=".75"/>
  <path d="M32 33V48" stroke="#63E6FF" stroke-width="1.8" stroke-linecap="round" opacity=".55"/>
  <rect x="25.5" y="42.5" width="13" height="3.5" rx="1.75" fill="#37EFB0" fill-opacity=".24" stroke="#63E6FF" stroke-opacity=".4"/>
</svg>
