<svg xmlns="http://www.w3.org/2000/svg" viewBox="0 0 64 64" fill="none">
  <title>BroadcastGateways (BG)</title>
  <defs>
    <linearGradient id="bg" x1="8" y1="6" x2="56" y2="58" gradientUnits="userSpaceOnUse">
      <stop stop-color="#3F2617"/>
      <stop offset="1" stop-color="#190B0E"/>
    </linearGradient>
    <linearGradient id="stroke" x1="15" y1="11" x2="50" y2="49" gradientUnits="userSpaceOnUse">
      <stop stop-color="#FFD768"/>
      <stop offset="1" stop-color="#FF6374"/>
    </linearGradient>
    <radialGradient id="glow" cx="0" cy="0" r="1" gradientUnits="userSpaceOnUse" gradientTransform="translate(32 31) rotate(90) scale(19)">
      <stop stop-color="#FF8B79" stop-opacity=".24"/>
      <stop offset="1" stop-color="#FF8B79" stop-opacity="0"/>
    </radialGradient>
  </defs>
  <rect x="3.5" y="3.5" width="57" height="57" rx="16" fill="url(#bg)" stroke="#6D4034" stroke-opacity=".85"/>
  <circle cx="32" cy="31" r="18" fill="url(#glow)"/>
  <path d="M32 18V41" stroke="url(#stroke)" stroke-width="2.6" stroke-linecap="round"/>
  <path d="M25.5 47L32 41L38.5 47" stroke="url(#stroke)" stroke-width="2.6" stroke-linecap="round" stroke-linejoin="round"/>
  <path d="M27 52H37" stroke="#FFD768" stroke-width="2.2" stroke-linecap="round"/>
  <circle cx="32" cy="15" r="3.2" fill="#190B0E" stroke="#FFD768" stroke-width="1.6"/>
  <path d="M24 20C24 15.5817 27.5817 12 32 12M40 20C40 15.5817 36.4183 12 32 12" stroke="#FFD768" stroke-width="2" stroke-linecap="round" opacity=".85"/>
  <path d="M19 25C19 17.8203 24.8203 12 32 12M45 25C45 17.8203 39.1797 12 32 12" stroke="#FF6374" stroke-width="2.2" stroke-linecap="round" opacity=".78"/>
  <circle cx="20" cy="47" r="2.8" fill="#190B0E" stroke="#FF9A82" stroke-width="1.4"/>
  <circle cx="44" cy="47" r="2.8" fill="#190B0E" stroke="#FF9A82" stroke-width="1.4"/>
  <path d="M22.8 46.5H41.2" stroke="#FF9A82" stroke-width="1.8" stroke-linecap="round" opacity=".7"/>
</svg>
