<svg xmlns="http://www.w3.org/2000/svg" viewBox="0 0 64 64" fill="none">
  <title>Vendors</title>
  <defs>
    <linearGradient id="bg" x1="8" y1="6" x2="56" y2="58" gradientUnits="userSpaceOnUse">
      <stop stop-color="#113947"/>
      <stop offset="1" stop-color="#06141B"/>
    </linearGradient>
    <linearGradient id="stroke" x1="14" y1="12" x2="49" y2="49" gradientUnits="userSpaceOnUse">
      <stop stop-color="#37EFB0"/>
      <stop offset="1" stop-color="#63E6FF"/>
    </linearGradient>
    <radialGradient id="glow" cx="0" cy="0" r="1" gradientUnits="userSpaceOnUse" gradientTransform="translate(32 33) rotate(90) scale(19)">
      <stop stop-color="#37EFB0" stop-opacity=".24"/>
      <stop offset="1" stop-color="#37EFB0" stop-opacity="0"/>
    </radialGradient>
  </defs>
  <rect x="3.5" y="3.5" width="57" height="57" rx="16" fill="url(#bg)" stroke="#2E5D66" stroke-opacity=".8"/>
  <circle cx="32" cy="33" r="18" fill="url(#glow)"/>
  <path d="M22 18H28L30.5 22V31H19.5V22L22 18Z" fill="#0A1820" stroke="#37EFB0" stroke-width="2"/>
  <path d="M36 18H42L44.5 22V31H33.5V22L36 18Z" fill="#0A1820" stroke="#63E6FF" stroke-width="2"/>
  <path d="M28 39H36L39 43V51H25V43L28 39Z" fill="#0A1820" stroke="url(#stroke)" stroke-width="2"/>
  <path d="M19.5 24H30.5M33.5 24H44.5M25 45H39" stroke="url(#stroke)" stroke-width="1.8" stroke-linecap="round" opacity=".7"/>
  <path d="M25 31V35.5H32M39 31V35.5H32M32 39V35.5" stroke="url(#stroke)" stroke-width="2.2" stroke-linecap="round" stroke-linejoin="round"/>
  <circle cx="32" cy="35.5" r="2.6" fill="#08131B" stroke="#86F2FF" stroke-width="1.4"/>
</svg>
